<svg width="363" height="205" viewBox="0 0 363 205" fill="none" xmlns="http://www.w3.org/2000/svg">
<style>
    :root {
        color-scheme: light dark;
        --primary: light-dark(#E5E5E5, #262626);
        --secondary: light-dark(#D4D4D4, #404040);
        --accent: #649BEE;
    }
</style>
<path d="M0 3.40845C0 1.52601 1.52602 0 3.40845 0H359.592C361.474 0 363 1.52602 363 3.40845V201.099C363 202.981 361.474 204.507 359.592 204.507H3.40846C1.52603 204.507 0 202.981 0 201.099V3.40845Z" fill="var(--primary)"/>
<path d="M38.6291 30.108C38.6291 28.2255 40.1551 26.6995 42.0376 26.6995H327.779C329.662 26.6995 331.188 28.2255 331.188 30.108V39.1972C331.188 41.0796 329.662 42.6056 327.779 42.6056H42.0376C40.1551 42.6056 38.6291 41.0796 38.6291 39.1972V30.108Z" fill="var(--secondary)"/>
<path d="M7.95305 30.108C7.95305 28.2255 9.47907 26.6995 11.3615 26.6995H28.9718C30.8543 26.6995 32.3803 28.2255 32.3803 30.108V39.1972C32.3803 41.0796 30.8543 42.6056 28.9718 42.6056H11.3615C9.47907 42.6056 7.95305 41.0796 7.95305 39.1972V30.108Z" fill="var(--secondary)"/>
<path d="M7.95305 16.4742C7.95305 14.5917 9.47907 13.0657 11.3615 13.0657H41.4695C43.3519 13.0657 44.8779 14.5917 44.8779 16.4742V18.7465C44.8779 20.6289 43.3519 22.1549 41.4695 22.1549H11.3615C9.47907 22.1549 7.95305 20.6289 7.95305 18.7465V16.4742Z" fill="var(--secondary)"/>
<path d="M49.4225 16.4742C49.4225 14.5917 50.9486 13.0657 52.831 13.0657H82.939C84.8214 13.0657 86.3474 14.5917 86.3474 16.4742V18.7465C86.3474 20.6289 84.8214 22.1549 82.939 22.1549H52.831C50.9486 22.1549 49.4225 20.6289 49.4225 18.7465V16.4742Z" fill="var(--secondary)"/>
<path d="M90.892 16.4742C90.892 14.5917 92.418 13.0657 94.3005 13.0657H124.408C126.291 13.0657 127.817 14.5917 127.817 16.4742V18.7465C127.817 20.6289 126.291 22.1549 124.408 22.1549H94.3005C92.418 22.1549 90.892 20.6289 90.892 18.7465V16.4742Z" fill="var(--secondary)"/>
<path d="M338.573 30.108C338.573 28.2255 340.099 26.6995 341.981 26.6995H349.366C351.249 26.6995 352.775 28.2255 352.775 30.108V39.1972C352.775 41.0796 351.249 42.6056 349.366 42.6056H341.981C340.099 42.6056 338.573 41.0796 338.573 39.1972V30.108Z" fill="var(--secondary)"/>
<path d="M7.95305 53.9671C7.95305 52.0847 9.47907 50.5587 11.3615 50.5587H349.366C351.249 50.5587 352.775 52.0847 352.775 53.9671V192.009C352.775 193.892 351.249 195.418 349.366 195.418H11.3615C9.47906 195.418 7.95305 193.892 7.95305 192.009V53.9671Z" fill="var(--accent)"/>
</svg>
