<svg width="363" height="206" viewBox="0 0 363 206" fill="none" xmlns="http://www.w3.org/2000/svg">
<path d="M0 3.41666C0 1.52969 1.52602 0 3.40845 0H359.592C361.474 0 363 1.52969 363 3.41667V201.583C363 203.47 361.474 205 359.592 205H3.40846C1.52603 205 0 203.47 0 201.583V3.41666Z" fill="#262626"/>
<path d="M7.95305 30.1806C7.95305 28.2936 9.47907 26.7639 11.3615 26.7639H28.9718C30.8543 26.7639 32.3803 28.2936 32.3803 30.1806V39.2917C32.3803 41.1786 30.8543 42.7083 28.9718 42.7083H11.3615C9.47907 42.7083 7.95305 41.1786 7.95305 39.2917V30.1806Z" fill="#404040"/>
<path d="M7.95305 16.5139C7.95305 14.6269 9.47907 13.0972 11.3615 13.0972H41.4695C43.3519 13.0972 44.8779 14.6269 44.8779 16.5139V18.7917C44.8779 20.6786 43.3519 22.2083 41.4695 22.2083H11.3615C9.47907 22.2083 7.95305 20.6786 7.95305 18.7917V16.5139Z" fill="#404040"/>
<path d="M49.4225 16.5139C49.4225 14.6269 50.9486 13.0972 52.831 13.0972H82.939C84.8214 13.0972 86.3474 14.6269 86.3474 16.5139V18.7917C86.3474 20.6786 84.8214 22.2083 82.939 22.2083H52.831C50.9486 22.2083 49.4225 20.6786 49.4225 18.7917V16.5139Z" fill="#404040"/>
<path d="M90.892 16.5139C90.892 14.6269 92.418 13.0972 94.3005 13.0972H124.408C126.291 13.0972 127.817 14.6269 127.817 16.5139V18.7917C127.817 20.6786 126.291 22.2083 124.408 22.2083H94.3005C92.418 22.2083 90.892 20.6786 90.892 18.7917V16.5139Z" fill="#404040"/>
<path d="M338.573 30.1806C338.573 28.2936 340.099 26.7639 341.981 26.7639H349.366C351.249 26.7639 352.775 28.2936 352.775 30.1806V39.2917C352.775 41.1786 351.249 42.7083 349.366 42.7083H341.981C340.099 42.7083 338.573 41.1786 338.573 39.2917V30.1806Z" fill="#404040"/>
<path d="M7.95305 54.0972C7.95305 52.2102 9.47907 50.6806 11.3615 50.6806H349.366C351.249 50.6806 352.775 52.2102 352.775 54.0972V192.472C352.775 194.359 351.249 195.889 349.366 195.889H11.3615C9.47906 195.889 7.95305 194.359 7.95305 192.472V54.0972Z" fill="#404040"/>
<path d="M38.6291 30.1806C38.6291 28.2936 40.1551 26.7639 42.0376 26.7639H327.779C329.662 26.7639 331.188 28.2936 331.188 30.1806V39.2917C331.188 41.1786 329.662 42.7083 327.779 42.7083H42.0376C40.1551 42.7083 38.6291 41.1786 38.6291 39.2917V30.1806Z" fill="#649BEE"/>
</svg>
