<svg width="31" height="26" viewBox="0 0 31 26" fill="none" xmlns="http://www.w3.org/2000/svg">
<style>
:root {
    color-scheme: light dark;
}
</style>
<path d="M25.8331 0C26.4671 0 27.0174 0.235749 27.4833 0.707838C27.949 1.18022 28.182 1.73805 28.182 2.38091V15.9868C27.7318 15.877 27.2611 15.8215 26.7727 15.8215H25.8331V8.4046H15.5942V2.38091H2.34893V20.476H12.6281C12.5475 20.8744 12.5058 21.2876 12.5058 21.7144C12.5058 22.107 12.5407 22.4883 12.609 22.8569H2.34893C1.71488 22.8569 1.16461 22.6212 0.698693 22.1491C0.232992 21.6767 5.97451e-07 21.1189 0 20.476V2.38091C2.27362e-07 1.73805 0.232992 1.18022 0.698693 0.707838C1.16461 0.235751 1.71488 0 2.34893 0H25.8331Z" fill="light-dark(black, white)"/>
<path d="M21.7001 26H18.3183C17.1487 26 16.1518 25.5821 15.3275 24.7464C14.5032 23.9107 14.091 22.9 14.091 21.7143C14.091 20.5285 14.5032 19.5178 15.3275 18.6821C16.1518 17.8464 17.1487 17.4285 18.3183 17.4285H21.7001V19.1428H18.3183C17.6137 19.1428 17.0149 19.3928 16.5217 19.8928C16.0285 20.3928 15.7819 21 15.7819 21.7143C15.7819 22.4285 16.0285 23.0357 16.5217 23.5357C17.0149 24.0357 17.6137 24.2857 18.3183 24.2857H21.7001V26ZM19.1637 22.5714V20.8571H25.9273V22.5714H19.1637ZM23.3909 26V24.2857H26.7727C27.4773 24.2857 28.0762 24.0357 28.5693 23.5357C29.0625 23.0357 29.3091 22.4285 29.3091 21.7143C29.3091 21 29.0625 20.3928 28.5693 19.8928C28.0762 19.3928 27.4773 19.1428 26.7727 19.1428H23.3909V17.4285H26.7727C27.9423 17.4285 28.9392 17.8464 29.7635 18.6821C30.5878 19.5178 31 20.5285 31 21.7143C31 22.9 30.5878 23.9107 29.7635 24.7464C28.9392 25.5821 27.9423 26 26.7727 26H23.3909Z" fill="light-dark(black, white)"/>
</svg>
